<svg width="2343" height="2342" xmlns="http://www.w3.org/2000/svg" xmlns:xlink="http://www.w3.org/1999/xlink" xml:space="preserve" overflow="hidden"><defs><linearGradient x1="1590.76" y1="-175.435" x2="2808.21" y2="2650.1" gradientUnits="userSpaceOnUse" spreadMethod="reflect" id="fill0"><stop offset="0" stop-color="#ECEEF0" stop-opacity="0.901961"/><stop offset="0.04762" stop-color="#EBEDF0" stop-opacity="0.901961"/><stop offset="0.09524" stop-color="#EBEDF1" stop-opacity="0.901961"/><stop offset="0.14286" stop-color="#EBEDF1" stop-opacity="0.901961"/><stop offset="0.19048" stop-color="#EBEDF2" stop-opacity="0.901961"/><stop offset="0.2381" stop-color="#EAEDF2" stop-opacity="0.901961"/><stop offset="0.28571" stop-color="#E9EDF3" stop-opacity="0.901961"/><stop offset="0.33333" stop-color="#E9ECF3" stop-opacity="0.901961"/><stop offset="0.38095" stop-color="#E8ECF4" stop-opacity="0.901961"/><stop offset="0.42857" stop-color="#E7EBF4" stop-opacity="0.901961"/><stop offset="0.47619" stop-color="#E6EBF4" stop-opacity="0.901961"/><stop offset="0.52381" stop-color="#E5EBF5" stop-opacity="0.901961"/><stop offset="0.57143" stop-color="#E4EAF5" stop-opacity="0.901961"/><stop offset="0.61905" stop-color="#E3E9F5" stop-opacity="0.901961"/><stop offset="0.66667" stop-color="#E1E9F6" stop-opacity="0.901961"/><stop offset="0.71429" stop-color="#E0E8F6" stop-opacity="0.901961"/><stop offset="0.76191" stop-color="#DEE7F6" stop-opacity="0.901961"/><stop offset="0.80952" stop-color="#DDE7F6" stop-opacity="0.901961"/><stop offset="0.85714" stop-color="#DBE6F6" stop-opacity="0.901961"/><stop offset="0.90476" stop-color="#D9E5F6" stop-opacity="0.901961"/><stop offset="0.95238" stop-color="#D7E4F6" stop-opacity="0.901961"/><stop offset="1" stop-color="#D6E4F7" stop-opacity="0.901961"/></linearGradient></defs><g transform="translate(-1028 -66)"><path d="M1911.24 186.629C2054.82 33.7631 2295.19 26.1888 2448.13 169.712 2451.3 172.693 2454.43 175.734 2457.51 178.826L2457.51 178.826C2531.73 253.448 2633.61 293.936 2738.82 290.621L2738.82 290.621C2948.48 283.915 3123.9 448.373 3130.6 657.946 3130.74 662.388 3130.81 666.834 3130.79 671.279L3130.79 671.279C3130.49 776.513 3173.9 877.152 3250.64 949.183L3250.64 949.183C3403.58 1092.71 3411.15 1332.97 3267.56 1485.84 3264.58 1489.01 3261.55 1492.14 3258.45 1495.22L3258.45 1495.22C3183.8 1569.41 3143.29 1671.24 3146.6 1776.42L3146.6 1776.42C3153.33 1986 2988.81 2161.34 2779.15 2168.05 2774.7 2168.19 2770.24 2168.26 2765.79 2168.24L2765.79 2168.24C2660.52 2167.94 2559.83 2211.33 2487.77 2288.04L2487.77 2288.04C2344.18 2440.91 2103.82 2448.48 1950.88 2304.96 1947.71 2301.97 1944.58 2298.94 1941.5 2295.85L1941.5 2295.85C1867.28 2221.23 1765.4 2180.73 1660.17 2184.05L1660.17 2184.05C1450.51 2190.78 1275.09 2026.32 1268.38 1816.75 1268.23 1812.31 1268.17 1807.85 1268.18 1803.4L1268.18 1803.4C1268.49 1698.17 1225.08 1597.53 1148.33 1525.5L1148.33 1525.5C995.398 1381.97 987.826 1141.71 1131.41 988.841 1134.4 985.667 1137.43 982.541 1140.52 979.462L1140.52 979.462C1215.17 905.273 1255.69 803.437 1252.37 698.262L1252.37 698.262C1245.64 488.689 1410.17 313.347 1619.83 306.627 1624.27 306.484 1628.74 306.421 1633.18 306.433L1633.18 306.433C1738.46 306.744 1839.14 263.36 1911.21 186.64Z" fill="url(#fill0)" fill-rule="evenodd"/><path d="M2757.39 1062.79 2758.03 1058.94C2766.9 1026.15 2747.44 992.392 2714.59 983.548 2709.3 982.121 2703.84 981.408 2698.35 981.426L2521.22 981.426 2566.15 802.691C2574.58 769.348 2554.34 735.491 2520.94 727.071 2516 725.824 2510.92 725.189 2505.82 725.175 2476.94 725.175 2452.55 744.395 2445.5 771.941L2392.87 981.426 2136.17 981.426 2181.09 802.691C2189.52 769.348 2169.29 735.491 2135.88 727.071 2130.94 725.824 2125.86 725.189 2120.76 725.175 2091.88 725.175 2067.5 744.395 2060.44 771.941L2007.81 981.426 1799.88 981.426C1771 981.426 1745.97 1000.64 1739.56 1028.19L1738.27 1032.04C1728.64 1071.75 1758.17 1109.55 1798.6 1109.55L1975.72 1109.55 1911.55 1365.8 1703.62 1365.8C1674.74 1365.8 1650.35 1385.02 1643.29 1412.57L1642.01 1416.41C1632.38 1456.13 1661.9 1493.92 1702.33 1493.92L1879.46 1493.92 1834.54 1672.66C1824.91 1712.38 1854.43 1750.18 1894.86 1750.18 1923.74 1750.18 1948.13 1730.96 1955.19 1703.41L2007.81 1493.92 2264.52 1493.92 2219.59 1672.66C2209.97 1712.38 2239.49 1750.18 2279.92 1750.18 2308.8 1750.18 2333.19 1730.96 2340.25 1703.41L2392.87 1493.92 2600.8 1493.92C2629.68 1493.92 2654.07 1474.71 2661.13 1447.16L2661.77 1443.32C2670.07 1409.79 2649.56 1375.9 2615.98 1367.62 2611.22 1366.45 2606.35 1365.84 2601.44 1365.8L2424.96 1365.8 2489.13 1109.55 2697.07 1109.55C2725.95 1109.55 2750.97 1090.33 2757.39 1062.79M2296.6 1365.8 2039.9 1365.8 2104.08 1109.55 2360.78 1109.55Z" fill="#00629E" fill-rule="evenodd"/></g></svg>