<svg xmlns="http://www.w3.org/2000/svg" width="1268" height="455" viewBox="0 0 1268 455">
  <g id="组_18" data-name="组 18" transform="translate(-2844 -168)">
    <g id="组_16" data-name="组 16" transform="translate(2844 195)">
      <rect id="矩形_7" data-name="矩形 7" width="400" height="400" fill="none"/>
      <g id="组_12" data-name="组 12" transform="translate(-199.587 123.82) rotate(-45)">
        <path id="矩形_14" data-name="矩形 14" d="M20,0H80a20,20,0,0,1,20,20V30A20,20,0,0,1,80,50H0a0,0,0,0,1,0,0V20A20,20,0,0,1,20,0Z" transform="translate(306 359) rotate(90)" fill="currentColor"/>
        <path id="矩形_15" data-name="矩形 15" d="M20,0h80a0,0,0,0,1,0,0V80a20,20,0,0,1-20,20H72A72,72,0,0,1,0,28V20A20,20,0,0,1,20,0Z" transform="translate(106 359)" fill="currentColor"/>
        <path id="矩形_6" data-name="矩形 6" d="M35.049,0A35,35,0,1,1,0,35.049,34.881,34.881,0,0,1,35.049,0Z" transform="translate(351.366 213.836) rotate(90)" fill="currentColor"/>
        <path id="联合_1_-_轮廓" data-name="联合 1 - 轮廓" d="M-749.007,235.567h-50v-50h-80a20,20,0,0,1-20-20v-10a20,20,0,0,1,20-20h110a20,20,0,0,1,20,20Z" transform="translate(1005.007 123.433)" fill="currentColor"/>
      </g>
    </g>
    <g id="组_24" data-name="组 24" transform="translate(3244 168)">
      <rect id="矩形_9" data-name="矩形 9" width="868" height="455" fill="none"/>
      <g id="组_20" data-name="组 20" transform="translate(-292.473 -194.982)">
        <path id="路径_1" data-name="路径 1" d="M6261.77,3955.406h-22.3V3837.617h85.634v22.3H6261.77Z" transform="translate(-5863 -3471.376)" fill="currentColor"/>
        <path id="路径_2" data-name="路径 2" d="M6383.571,3836.965h-22.3V3682.917h-121.8v-20.982h144.1Z" transform="translate(-5863 -3352.936)" fill="currentColor"/>
        <path id="联合_2" data-name="联合 2" d="M48.26,150.785l-20.194-9.452L60.9,71.194,23.533,24.031,23.515-11.9,71.46,48.623l28.712-61.341,20.194,9.452Z" transform="translate(511.8 385.179)" fill="currentColor"/>
        <path id="路径_6" data-name="路径 6" d="M7081.973,3972.434c-31.818,0-59.42-17.095-74.118-31.723l-7.456-7.421,14.842-14.911,7.441,7.407c2.311,2.275,53.227,51.229,106.546,7.131l-76.394-72.117h102.133v76.811l-3.08,3.081C7128.51,3964.078,7104.21,3972.432,7081.973,3972.434Z" transform="translate(-6368.233 -3488.339)" fill="currentColor"/>
        <path id="路径_7" data-name="路径 7" d="M7474.866,3972.434c-16.159,0-29.374-8.433-31.127-9.6l-9.276-6.184,12.368-18.552,9.276,6.184c3.545,2.309,14.951,7.793,24.462,5.1,5.656-1.6,10.281-5.892,14.089-13.081v-75.5h22.3v80.618l-1.066,2.259c-6.858,14.532-16.765,23.687-29.445,27.209A43.131,43.131,0,0,1,7474.866,3972.434Z" transform="translate(-6638.482 -3488.339)" fill="currentColor"/>
        <path id="路径_9" data-name="路径 9" d="M7786.944,4121.8h-81.471v-22.3h81.471Z" transform="translate(-6811.923 -3637.767)" fill="currentColor"/>
        <path id="路径_10" data-name="路径 10" d="M7968.042,3925.334h-11.148v-22.3h59c2.38-.427,5.08-2.545,5.08-9.953,0-8.813-4.034-10.154-5.049-10.351h-31.9l-1.017-.19c-9.031-1.691-26.111-10.65-26.111-32.458,0-21.48,16.76-31.077,25.623-33.151l1.253-.293h56.964v22.3h-54.042c-2.495.926-7.5,3.728-7.5,11.147,0,7.46,5.1,9.738,7.153,10.351h30.635l.426.032c8.945.686,25.862,8.386,25.862,32.615,0,22.669-15.636,31.7-26.146,32.235Z" transform="translate(-6966.795 -3441.304)" fill="currentColor"/>
        <path id="路径_9-2" data-name="路径 9" d="M7786.944,4121.8h-81.471v-22.3h81.471Z" transform="translate(-6811.923 -3680.965)" fill="currentColor"/>
        <path id="路径_9-3" data-name="路径 9" d="M7786.944,4121.8h-81.471v-22.3h81.471Z" transform="translate(-6811.923 -3724.163)" fill="currentColor"/>
        <rect id="矩形_16" data-name="矩形 16" width="251.582" height="22.297" transform="translate(535.315 309)" fill="currentColor"/>
        <path id="路径_12" data-name="路径 12" d="M-241.8.8a14.8,14.8,0,0,1-4.4-.65,12.711,12.711,0,0,1-3.85-1.95,13.5,13.5,0,0,1-3.05-3.175,15.37,15.37,0,0,1-2.05-4.375l6.35-2.5a9.7,9.7,0,0,0,2.45,4.475,6.172,6.172,0,0,0,4.6,1.775,7.424,7.424,0,0,0,2.025-.275,6,6,0,0,0,1.75-.8A3.881,3.881,0,0,0-236.75-8a3.709,3.709,0,0,0,.45-1.85,4.446,4.446,0,0,0-.35-1.8,4.209,4.209,0,0,0-1.175-1.5,10.43,10.43,0,0,0-2.15-1.35,32.476,32.476,0,0,0-3.275-1.35l-2.2-.8A16.912,16.912,0,0,1-248.375-18a12.815,12.815,0,0,1-2.675-2.05,10.11,10.11,0,0,1-1.975-2.825,8.433,8.433,0,0,1-.775-3.675,9.417,9.417,0,0,1,.825-3.925,9.592,9.592,0,0,1,2.35-3.2,11.018,11.018,0,0,1,3.65-2.15,13.708,13.708,0,0,1,4.725-.775,13.572,13.572,0,0,1,4.675.725,11.5,11.5,0,0,1,3.35,1.85A10.3,10.3,0,0,1-232-31.55,11.931,11.931,0,0,1-230.75-29l-5.95,2.5a6.336,6.336,0,0,0-1.825-2.7,5.2,5.2,0,0,0-3.625-1.2,6.17,6.17,0,0,0-3.65,1.025,3.139,3.139,0,0,0-1.45,2.675,3.388,3.388,0,0,0,1.4,2.725A15.261,15.261,0,0,0-241.4-21.8l2.25.75a25.776,25.776,0,0,1,3.925,1.725A12.3,12.3,0,0,1-232.175-17a9.458,9.458,0,0,1,1.95,3.075,10.857,10.857,0,0,1,.675,3.975,9.787,9.787,0,0,1-1.125,4.825A10.317,10.317,0,0,1-233.55-1.8,12.5,12.5,0,0,1-237.5.15,15.135,15.135,0,0,1-241.8.8Zm39.9-.8V-29.4h-10v-6.4h26.75v6.4h-10V0Zm49.65.8a15.355,15.355,0,0,1-5.725-1.025A11.8,11.8,0,0,1-162.35-3.2a13.731,13.731,0,0,1-2.8-4.725,18.589,18.589,0,0,1-1-6.325V-35.8h6.75v21.95a11.449,11.449,0,0,0,.45,3.3,7.42,7.42,0,0,0,1.35,2.6,6.256,6.256,0,0,0,2.25,1.725,7.3,7.3,0,0,0,3.1.625,7.43,7.43,0,0,0,3.15-.625,6.257,6.257,0,0,0,2.25-1.725,7.42,7.42,0,0,0,1.35-2.6,11.449,11.449,0,0,0,.45-3.3V-35.8h6.75v21.55a18.372,18.372,0,0,1-.975,6.125,13.487,13.487,0,0,1-2.8,4.75,12.705,12.705,0,0,1-4.4,3.075A14.563,14.563,0,0,1-152.25.8Zm35.35-36.6h12.1a21.286,21.286,0,0,1,7.65,1.3,16.507,16.507,0,0,1,5.8,3.675,15.973,15.973,0,0,1,3.675,5.675A19.956,19.956,0,0,1-86.4-17.9a20.1,20.1,0,0,1-1.275,7.3A15.726,15.726,0,0,1-91.35-4.95a16.692,16.692,0,0,1-5.8,3.65A21.286,21.286,0,0,1-104.8,0h-12.1Zm11.8,29.4a15.066,15.066,0,0,0,5.2-.825A10.158,10.158,0,0,0-96.15-9.55a9.532,9.532,0,0,0,2.25-3.625,14.122,14.122,0,0,0,.75-4.725,14.122,14.122,0,0,0-.75-4.725,9.532,9.532,0,0,0-2.25-3.625,10.158,10.158,0,0,0-3.75-2.325,15.066,15.066,0,0,0-5.2-.825h-5.05v23Zm39.15-29.4h6.75V0h-6.75ZM-20.55.8A18.848,18.848,0,0,1-27.975-.65,18.25,18.25,0,0,1-33.9-4.625a18.41,18.41,0,0,1-3.925-5.95A18.876,18.876,0,0,1-39.25-17.9a18.876,18.876,0,0,1,1.425-7.325,18.41,18.41,0,0,1,3.925-5.95,18.25,18.25,0,0,1,5.925-3.975A18.848,18.848,0,0,1-20.55-36.6a18.848,18.848,0,0,1,7.425,1.45A18.25,18.25,0,0,1-7.2-31.175a18.41,18.41,0,0,1,3.925,5.95A18.876,18.876,0,0,1-1.85-17.9a18.876,18.876,0,0,1-1.425,7.325A18.41,18.41,0,0,1-7.2-4.625,18.25,18.25,0,0,1-13.125-.65,18.848,18.848,0,0,1-20.55.8Zm0-6.4a12.105,12.105,0,0,0,4.675-.9,11.772,11.772,0,0,0,3.8-2.5,11.372,11.372,0,0,0,2.55-3.875A13.223,13.223,0,0,0-8.6-17.9a13.223,13.223,0,0,0-.925-5.025,11.372,11.372,0,0,0-2.55-3.875,11.772,11.772,0,0,0-3.8-2.5,12.105,12.105,0,0,0-4.675-.9,12.105,12.105,0,0,0-4.675.9,11.772,11.772,0,0,0-3.8,2.5,11.372,11.372,0,0,0-2.55,3.875A13.223,13.223,0,0,0-32.5-17.9a13.223,13.223,0,0,0,.925,5.025A11.372,11.372,0,0,0-29.025-9a11.772,11.772,0,0,0,3.8,2.5A12.1,12.1,0,0,0-20.55-5.6Z" transform="translate(1076.473 338.048)" fill="currentColor"/>
      </g>
    </g>
  </g>
</svg>
