<svg width="1560" height="1559" xmlns="http://www.w3.org/2000/svg" xmlns:xlink="http://www.w3.org/1999/xlink" xml:space="preserve" overflow="hidden"><defs><linearGradient x1="1922.99" y1="594.873" x2="2477.01" y2="1880.13" gradientUnits="userSpaceOnUse" spreadMethod="reflect" id="fill0"><stop offset="0" stop-color="#ECEEF0" stop-opacity="0.901961"/><stop offset="0.047619" stop-color="#EBEDF0" stop-opacity="0.901961"/><stop offset="0.0952381" stop-color="#EBEDF1" stop-opacity="0.901961"/><stop offset="0.142857" stop-color="#EBEDF1" stop-opacity="0.901961"/><stop offset="0.190476" stop-color="#EBEDF2" stop-opacity="0.901961"/><stop offset="0.238095" stop-color="#EAEDF2" stop-opacity="0.901961"/><stop offset="0.285714" stop-color="#E9EDF3" stop-opacity="0.901961"/><stop offset="0.333333" stop-color="#E9ECF3" stop-opacity="0.901961"/><stop offset="0.380952" stop-color="#E8ECF4" stop-opacity="0.901961"/><stop offset="0.428571" stop-color="#E7EBF4" stop-opacity="0.901961"/><stop offset="0.47619" stop-color="#E6EBF4" stop-opacity="0.901961"/><stop offset="0.52381" stop-color="#E5EBF5" stop-opacity="0.901961"/><stop offset="0.571429" stop-color="#E4EAF5" stop-opacity="0.901961"/><stop offset="0.619048" stop-color="#E3E9F5" stop-opacity="0.901961"/><stop offset="0.666667" stop-color="#E1E9F6" stop-opacity="0.901961"/><stop offset="0.714286" stop-color="#E0E8F6" stop-opacity="0.901961"/><stop offset="0.761905" stop-color="#DEE7F6" stop-opacity="0.901961"/><stop offset="0.809524" stop-color="#DDE7F6" stop-opacity="0.901961"/><stop offset="0.857143" stop-color="#DBE6F6" stop-opacity="0.901961"/><stop offset="0.904762" stop-color="#D9E5F6" stop-opacity="0.901961"/><stop offset="0.952381" stop-color="#D7E4F6" stop-opacity="0.901961"/><stop offset="1" stop-color="#D6E4F7" stop-opacity="0.901961"/></linearGradient></defs><g transform="translate(-1420 -458)"><path d="M2018.44 575.402C2108.88 479.075 2260.28 474.302 2356.61 564.742 2358.61 566.621 2360.58 568.537 2362.52 570.485L2362.52 570.485C2409.27 617.508 2473.44 643.021 2539.71 640.932L2539.71 640.932C2671.77 636.706 2782.26 740.338 2786.48 872.399 2786.57 875.198 2786.61 878 2786.6 880.801L2786.6 880.801C2786.41 947.113 2813.75 1010.53 2862.09 1055.92L2862.09 1055.92C2958.42 1146.36 2963.19 1297.76 2872.75 1394.09 2870.87 1396.09 2868.96 1398.06 2867.01 1400L2867.01 1400C2819.99 1446.75 2794.47 1510.92 2796.56 1577.2L2796.56 1577.2C2800.8 1709.26 2697.17 1819.75 2565.11 1823.98 2562.31 1824.07 2559.5 1824.11 2556.7 1824.1L2556.7 1824.1C2490.39 1823.91 2426.97 1851.25 2381.58 1899.59L2381.58 1899.59C2291.14 1995.92 2139.74 2000.69 2043.41 1910.25 2041.41 1908.37 2039.44 1906.46 2037.5 1904.51L2037.5 1904.51C1990.75 1857.49 1926.58 1831.97 1860.3 1834.06L1860.3 1834.06C1728.24 1838.3 1617.75 1734.67 1613.52 1602.61 1613.43 1599.81 1613.39 1597 1613.4 1594.2L1613.4 1594.2C1613.59 1527.89 1586.25 1464.47 1537.91 1419.08L1537.91 1419.08C1441.58 1328.64 1436.81 1177.24 1527.25 1080.91 1529.13 1078.91 1531.04 1076.94 1532.99 1075L1532.99 1075C1580.01 1028.25 1605.53 964.079 1603.44 897.804L1603.44 897.804C1599.2 765.743 1702.83 655.253 1834.89 651.018 1837.69 650.928 1840.5 650.888 1843.3 650.896L1843.3 650.896C1909.61 651.092 1973.03 623.754 2018.42 575.409Z" fill="url(#fill0)" fill-rule="evenodd"/><g><g><g><path d="M671.238 300.889 671.563 298.941C676.045 282.326 666.207 265.223 649.592 260.742 646.914 260.019 644.152 259.658 641.377 259.667L551.792 259.667 574.513 169.108C578.778 152.214 568.543 135.06 551.649 130.794 549.15 130.162 546.579 129.84 544.002 129.833 529.395 129.833 517.061 139.571 513.491 153.528L486.875 259.667 357.042 259.667 379.762 169.108C384.027 152.214 373.793 135.06 356.899 130.794 354.4 130.162 351.829 129.84 349.252 129.833 334.645 129.833 322.311 139.571 318.741 153.528L292.125 259.667 186.96 259.667C172.354 259.667 159.695 269.404 156.449 283.361L155.8 285.309C150.931 305.433 165.862 324.583 186.311 324.583L275.896 324.583 243.437 454.417 138.273 454.417C123.666 454.417 111.332 464.154 107.762 478.111L107.112 480.059C102.244 500.183 117.175 519.333 137.623 519.333L227.208 519.333 204.488 609.892C199.619 630.016 214.55 649.167 234.998 649.167 249.605 649.167 261.939 639.429 265.509 625.472L292.125 519.333 421.958 519.333 399.237 609.892C394.369 630.016 409.3 649.167 429.748 649.167 444.355 649.167 456.689 639.429 460.259 625.472L486.875 519.333 592.04 519.333C606.646 519.333 618.98 509.596 622.551 495.639L622.875 493.691C627.072 476.706 616.702 459.535 599.716 455.338 597.311 454.744 594.844 454.436 592.365 454.417L503.104 454.417 535.562 324.583 640.727 324.583C655.334 324.583 667.992 314.846 671.238 300.889M438.187 454.417 308.354 454.417 340.812 324.583 470.646 324.583Z" fill="#00629E" transform="matrix(1.00128 0 0 1 1810 848)"/></g></g></g></g></svg>